<svg xmlns="http://www.w3.org/2000/svg" xmlns:xlink="http://www.w3.org/1999/xlink" aria-hidden="true" role="img" class="iconify iconify--logos" width="31.88" height="32" preserveAspectRatio="xMidYMid meet" viewBox="0 0 256 257"><defs><linearGradient id="IconifyId1813088fe1fbc01fb466" x1="-.828%" x2="57.636%" y1="7.652%" y2="78.411%"><stop offset="0%" stop-color="#41D1FF"></stop><stop offset="100%" stop-color="#BD34FE"></stop></linearGradient><linearGradient id="IconifyId1813088fe1fbc01fb467" x1="43.376%" x2="50.316%" y1="2.242%" y2="89.03%"><stop offset="0%" stop-color="#FFEA83"></stop><stop offset="8.333%" stop-color="#FFDD35"></stop><stop offset="100%" stop-color="#FFA800"></stop></linearGradient></defs><path fill="url(#IconifyId1813088fe1fbc01fb466)" d="M255.153 37.938L194.836 1.932C190.864.347 186.837.023 182.803.001c-4.033-.023-8.06.346-12.032 1.931L121.317 37.938C117.377 39.486 114.128 42.612 112.26 46.693L74.053 127.38c-1.869 4.081-1.869 8.609 0 12.69l38.207 80.687c1.908 4.081 5.157 7.207 9.007 8.754l60.483 35.976c3.85 1.548 8.04 1.548 11.89 0l60.483-35.976c3.85-1.547 7.099-4.673 9.007-8.754l38.207-80.687c1.869-4.081 1.869-8.609 0-12.69l-38.207-80.687c-1.908-4.081-5.157-7.207-9.007-8.754z"></path><path fill="url(#IconifyId1813088fe1fbc01fb467)" d="M185.432.006L147.61 37.828c-3.8 1.549-7.049 4.674-8.957 8.755L100.477 127.38c-1.869 4.081-1.869 8.609 0 12.69l38.176 80.819c1.908 4.081 5.157 7.206 8.957 8.755l37.822 37.822c3.8 1.548 8.049 1.548 11.849 0l37.822-37.822c3.8-1.549 7.049-4.674 8.957-8.755l38.176-80.819c1.869-4.081 1.869-8.609 0-12.69L194.281 46.583c-1.908-4.081-5.157-7.206-8.957-8.755L147.61.006c-3.8-1.549-8.049-1.549-11.849 0z"></path></svg>
